<svg width="33" height="32" viewBox="0 0 33 32" fill="none" xmlns="http://www.w3.org/2000/svg">
<path d="M19.0168 12.0811L30.7635 14.4144C31.7102 14.6144 32.3502 15.4144 32.3502 16.3611V29.9611C32.3502 31.0677 31.4568 31.9611 30.3502 31.9611H18.3502C18.7235 31.9611 19.0168 31.6677 19.0168 31.2944V30.6277H30.3502C30.7102 30.6277 31.0168 30.3344 31.0168 29.9611V16.3611C31.0168 16.0544 30.8035 15.7744 30.4968 15.7077L19.0168 13.4411V12.0811Z" fill="white"/>
<path d="M26.3502 18.6277C26.7235 18.6277 27.0168 18.921 27.0168 19.2944C27.0168 19.6677 26.7235 19.961 26.3502 19.961H23.6835C23.3102 19.961 23.0168 19.6677 23.0168 19.2944C23.0168 18.921 23.3102 18.6277 23.6835 18.6277H26.3502Z" fill="white"/>
<path d="M26.3502 22.6277C26.7235 22.6277 27.0168 22.921 27.0168 23.2944C27.0168 23.6677 26.7235 23.961 26.3502 23.961H23.6835C23.3102 23.961 23.0168 23.6677 23.0168 23.2944C23.0168 22.921 23.3102 22.6277 23.6835 22.6277H26.3502Z" fill="white"/>
<path d="M26.3502 26.6277C26.7235 26.6277 27.0168 26.921 27.0168 27.2944C27.0168 27.6677 26.7235 27.961 26.3502 27.961H23.6835C23.3102 27.961 23.0168 27.6677 23.0168 27.2944C23.0168 26.921 23.3102 26.6277 23.6835 26.6277H26.3502Z" fill="white"/>
<path d="M19.0168 31.2943C19.0168 31.6677 18.7235 31.961 18.3501 31.961C17.9768 31.961 17.6835 31.6677 17.6835 31.2943V30.6277V12.6276C17.6835 12.4276 17.7768 12.241 17.9235 12.1076C18.0835 11.9876 18.2835 11.9343 18.4835 11.9743L19.0168 12.081V13.441V30.6277V31.2943Z" fill="white"/>
<path d="M17.6835 30.6277V31.2944C17.6835 31.6677 17.9768 31.961 18.3502 31.961H13.0168C13.3902 31.961 13.6835 31.6677 13.6835 31.2944V30.6277H17.6835Z" fill="white"/>
<path d="M14.3502 6.62769C14.7235 6.62769 15.0168 6.92102 15.0168 7.29435C15.0168 7.66769 14.7235 7.96102 14.3502 7.96102H11.6835C11.3102 7.96102 11.0168 7.66769 11.0168 7.29435C11.0168 6.92102 11.3102 6.62769 11.6835 6.62769H14.3502Z" fill="white"/>
<path d="M15.0168 11.2944C15.0168 11.6677 14.7235 11.961 14.3502 11.961H11.6835C11.3102 11.961 11.0168 11.6677 11.0168 11.2944C11.0168 10.921 11.3102 10.6277 11.6835 10.6277H14.3502C14.7235 10.6277 15.0168 10.921 15.0168 11.2944Z" fill="white"/>
<path d="M14.3502 14.6277C14.7235 14.6277 15.0168 14.921 15.0168 15.2944C15.0168 15.6677 14.7235 15.961 14.3502 15.961H11.6835C11.3102 15.961 11.0168 15.6677 11.0168 15.2944C11.0168 14.921 11.3102 14.6277 11.6835 14.6277H14.3502Z" fill="white"/>
<path d="M14.3502 18.6277C14.7235 18.6277 15.0168 18.921 15.0168 19.2944C15.0168 19.6677 14.7235 19.961 14.3502 19.961H11.6835C11.3102 19.961 11.0168 19.6677 11.0168 19.2944C11.0168 18.921 11.3102 18.6277 11.6835 18.6277H14.3502Z" fill="white"/>
<path d="M8.35016 19.2944C8.35016 19.6677 8.05683 19.961 7.68349 19.961H5.01683C4.64349 19.961 4.35016 19.6677 4.35016 19.2944C4.35016 18.921 4.64349 18.6277 5.01683 18.6277H7.68349C8.05683 18.6277 8.35016 18.921 8.35016 19.2944Z" fill="white"/>
<path d="M7.68349 6.62769C8.05683 6.62769 8.35016 6.92102 8.35016 7.29435C8.35016 7.66769 8.05683 7.96102 7.68349 7.96102H5.01683C4.64349 7.96102 4.35016 7.66769 4.35016 7.29435C4.35016 6.92102 4.64349 6.62769 5.01683 6.62769H7.68349Z" fill="white"/>
<path d="M7.68349 10.6277C8.05683 10.6277 8.35016 10.921 8.35016 11.2944C8.35016 11.6677 8.05683 11.961 7.68349 11.961H5.01683C4.64349 11.961 4.35016 11.6677 4.35016 11.2944C4.35016 10.921 4.64349 10.6277 5.01683 10.6277H7.68349Z" fill="white"/>
<path d="M7.68349 14.6277C8.05683 14.6277 8.35016 14.921 8.35016 15.2944C8.35016 15.6677 8.05683 15.961 7.68349 15.961H5.01683C4.64349 15.961 4.35016 15.6677 4.35016 15.2944C4.35016 14.921 4.64349 14.6277 5.01683 14.6277H7.68349Z" fill="white"/>
<path d="M12.3501 24.6277C12.3501 24.2544 12.0435 23.961 11.6835 23.961H7.68347C7.31014 23.961 7.0168 24.2544 7.0168 24.6277V30.6277H5.68347V24.6277C5.68347 23.521 6.5768 22.6277 7.68347 22.6277H11.6835C12.7901 22.6277 13.6835 23.521 13.6835 24.6277V30.6277H12.3501V24.6277Z" fill="white"/>
<path d="M7.0168 30.6277H12.3501H13.6835V31.2944C13.6835 31.6677 13.3901 31.961 13.0168 31.961H6.35014C5.9768 31.961 5.68347 31.6677 5.68347 31.2944V30.6277H7.0168Z" fill="white"/>
<path d="M2.68349 0.227619L17.3368 2.45429C18.3102 2.61429 19.0168 3.44095 19.0168 4.42762V12.081L18.4835 11.9743C18.2835 11.9343 18.0835 11.9876 17.9235 12.1076C17.7768 12.241 17.6835 12.4276 17.6835 12.6276V4.42762C17.6835 4.09429 17.4435 3.81429 17.1235 3.76095L2.47016 1.54762C2.43016 1.53429 2.39016 1.53429 2.35016 1.53429C2.19016 1.53429 2.04349 1.58762 1.92349 1.69429C1.76349 1.82762 1.68349 2.00095 1.68349 2.20095V29.961C1.68349 30.3343 1.99016 30.6276 2.35016 30.6276H5.68349V31.2943C5.68349 31.6676 5.97683 31.961 6.35016 31.961H2.35016C1.24349 31.961 0.350159 31.0676 0.350159 29.961V2.20095C0.350159 1.61429 0.603492 1.05429 1.05683 0.680952C1.51016 0.294285 2.09683 0.134285 2.68349 0.227619Z" fill="white"/>
</svg>
