<svg width="32" height="32" viewBox="0 0 32 32" fill="none" xmlns="http://www.w3.org/2000/svg">
<path d="M10.748 27.4026H3.57926C1.79806 27.4026 0.350098 25.9546 0.350098 24.1734V3.50675C0.350098 1.72555 1.79806 0.277588 3.57926 0.277588H19.0793C20.8605 0.277588 22.3084 1.72555 22.3084 3.50675V12.5872C22.3084 12.9437 22.0191 13.233 21.6626 13.233C21.3061 13.233 21.0168 12.945 21.0168 12.5872V3.50675C21.0168 2.43855 20.1475 1.56925 19.0793 1.56925H3.57926C2.51106 1.56925 1.64176 2.43855 1.64176 3.50675V24.1734C1.64176 25.2416 2.51106 26.1109 3.57926 26.1109H10.748C11.1045 26.1109 11.3938 26.4003 11.3938 26.7568C11.3938 27.1133 11.1045 27.4026 10.748 27.4026Z" fill="white"/>
<path d="M17.7876 11.9026H4.87093C4.51443 11.9026 4.2251 11.6133 4.2251 11.2568C4.2251 10.9003 4.51443 10.611 4.87093 10.611H17.7876C18.1441 10.611 18.4334 10.9003 18.4334 11.2568C18.4334 11.6133 18.1441 11.9026 17.7876 11.9026Z" fill="white"/>
<path d="M12.6209 17.0693H4.87093C4.51443 17.0693 4.2251 16.7799 4.2251 16.4234C4.2251 16.0669 4.51443 15.7776 4.87093 15.7776H12.6209C12.9774 15.7776 13.2668 16.0669 13.2668 16.4234C13.2668 16.7799 12.9774 17.0693 12.6209 17.0693Z" fill="white"/>
<path d="M11.3293 6.73588H4.87093C4.51443 6.73588 4.2251 6.44655 4.2251 6.09005C4.2251 5.73355 4.51443 5.44421 4.87093 5.44421H11.3293C11.6858 5.44421 11.9751 5.73355 11.9751 6.09005C11.9751 6.44655 11.6858 6.73588 11.3293 6.73588Z" fill="white"/>
<path d="M29.4126 31.2776H15.2042C14.136 31.2776 13.2667 30.4083 13.2667 29.3401C13.2667 28.9603 13.3713 28.6051 13.5703 28.308L20.6589 16.7076C20.9935 16.138 21.6277 15.7776 22.3084 15.7776C22.9891 15.7776 23.6233 16.138 23.963 16.7179L31.0607 28.3326C31.2454 28.6051 31.3501 28.9603 31.3501 29.3401C31.3501 30.4083 30.4808 31.2776 29.4126 31.2776ZM22.3084 17.0693C22.0836 17.0693 21.877 17.1855 21.7685 17.3702L14.6578 29.0055C14.5868 29.1115 14.5584 29.2187 14.5584 29.3401C14.5584 29.6953 14.849 29.9859 15.2042 29.9859H29.4126C29.7678 29.9859 30.0584 29.6953 30.0584 29.3401C30.0584 29.2187 30.03 29.1115 29.9744 29.0301L22.8548 17.3805C22.7398 17.1855 22.5331 17.0693 22.3084 17.0693Z" fill="white"/>
<path d="M22.3084 26.1109C21.9519 26.1109 21.6626 25.8216 21.6626 25.4651V20.2984C21.6626 19.9419 21.9519 19.6526 22.3084 19.6526C22.6649 19.6526 22.9543 19.9419 22.9543 20.2984V25.4651C22.9543 25.8216 22.6649 26.1109 22.3084 26.1109Z" fill="white"/>
<path d="M22.3084 28.6943C22.6651 28.6943 22.9543 28.4051 22.9543 28.0484C22.9543 27.6917 22.6651 27.4026 22.3084 27.4026C21.9517 27.4026 21.6626 27.6917 21.6626 28.0484C21.6626 28.4051 21.9517 28.6943 22.3084 28.6943Z" fill="white"/>
</svg>
