<svg width="25" height="28" viewBox="0 0 25 28" fill="none" xmlns="http://www.w3.org/2000/svg">
<path d="M12.5308 12.5893C9.17198 12.5893 6.44049 9.85777 6.44049 6.49898C6.44049 3.14019 9.17198 0.408691 12.5308 0.408691C15.8896 0.408691 18.6211 3.14019 18.6211 6.49898C18.6211 9.85777 15.8896 12.5893 12.5308 12.5893ZM12.5308 1.93126C10.0124 1.93126 7.96306 3.98064 7.96306 6.49898C7.96306 9.01731 10.0124 11.0667 12.5308 11.0667C15.0491 11.0667 17.0985 9.01731 17.0985 6.49898C17.0985 3.98064 15.0491 1.93126 12.5308 1.93126Z" fill="white"/>
<path d="M23.95 27.815C23.5298 27.815 23.1887 27.4739 23.1887 27.0537V22.486C23.1887 19.5474 20.7983 17.157 17.8597 17.157H7.20173C4.26317 17.157 1.87273 19.5474 1.87273 22.486V27.0537C1.87273 27.4739 1.53167 27.815 1.11144 27.815C0.691215 27.815 0.350159 27.4739 0.350159 27.0537V22.486C0.350159 18.7085 3.42423 15.6344 7.20173 15.6344H17.8597C21.6372 15.6344 24.7113 18.7085 24.7113 22.486V27.0537C24.7113 27.4739 24.3703 27.815 23.95 27.815Z" fill="white"/>
</svg>
